<?xml version="1.0" encoding="utf-8"?>
<!-- Generator: Adobe Illustrator 23.0.3, SVG Export Plug-In . SVG Version: 6.00 Build 0)  -->
<svg version="1.1" id="Capa_1" xmlns="http://www.w3.org/2000/svg" xmlns:xlink="http://www.w3.org/1999/xlink" x="0px" y="0px"
	 viewBox="0 0 438.5 438.5" style="enable-background:new 0 0 438.5 438.5;" xml:space="preserve">
<style type="text/css">
	.st0{fill:url(#SVGID_1_);}
</style>
<g>
	<linearGradient id="SVGID_1_" gradientUnits="userSpaceOnUse" x1="0" y1="219.267" x2="438.532" y2="219.267">
		<stop  offset="0" style="stop-color:#1245C6"/>
		<stop  offset="1" style="stop-color:#9909B7"/>
	</linearGradient>
	<path class="st0" d="M409.1,109.2c-19.6-33.6-46.2-60.2-79.8-79.8C295.7,9.8,259.1,0,219.3,0c-39.8,0-76.5,9.8-110.1,29.4
		C75.6,49,49,75.6,29.4,109.2C9.8,142.8,0,179.5,0,219.3c0,39.8,9.8,76.5,29.4,110.1c19.6,33.6,46.2,60.2,79.8,79.8
		c33.6,19.6,70.3,29.4,110.1,29.4s76.5-9.8,110.1-29.4c33.6-19.6,60.2-46.2,79.8-79.8c19.6-33.6,29.4-70.3,29.4-110.1
		C438.5,179.5,428.7,142.8,409.1,109.2z M347.2,237.5c0,4.9-1.8,9.2-5.4,12.8c-3.6,3.6-7.9,5.4-12.8,5.4h-73.1v73.1
		c0,4.9-1.8,9.2-5.4,12.9c-3.6,3.6-7.9,5.4-12.8,5.4H201c-4.9,0-9.2-1.8-12.8-5.4c-3.6-3.6-5.4-7.9-5.4-12.9v-73.1h-73.1
		c-4.9,0-9.2-1.8-12.8-5.4c-3.6-3.6-5.4-7.9-5.4-12.8V201c0-4.9,1.8-9.2,5.4-12.8c3.6-3.6,7.9-5.4,12.8-5.4h73.1v-73.1
		c0-4.9,1.8-9.2,5.4-12.8c3.6-3.6,7.9-5.4,12.8-5.4h36.5c4.9,0,9.2,1.8,12.8,5.4c3.6,3.6,5.4,7.9,5.4,12.8v73.1h73.1
		c4.9,0,9.2,1.8,12.8,5.4c3.6,3.6,5.4,7.9,5.4,12.8V237.5z"/>
</g>
</svg>
